<?xml version="1.0" encoding="utf-8"?>
<!-- Generator: Adobe Illustrator 16.0.0, SVG Export Plug-In . SVG Version: 6.00 Build 0)  -->
<!DOCTYPE svg PUBLIC "-//W3C//DTD SVG 1.1//EN" "http://www.w3.org/Graphics/SVG/1.1/DTD/svg11.dtd">
<svg version="1.1" id="Layer_1" xmlns="http://www.w3.org/2000/svg" xmlns:xlink="http://www.w3.org/1999/xlink" x="0px" y="0px"
	 width="64px" height="64px" viewBox="0 0 64 64" enable-background="new 0 0 64 64" xml:space="preserve">
<path d="M62.19,24.597c-0.813,0-1.473,0.659-1.473,1.473v4.274H59.91v-7.439c0-0.813-0.659-1.473-1.473-1.473
	c-0.813,0-1.473,0.659-1.473,1.473v7.439h-0.806v-0.542c0-0.814-0.66-1.473-1.473-1.473s-1.473,0.659-1.473,1.473v0.542h-0.809
	v-3.05c0-0.814-0.659-1.473-1.473-1.473c-0.813,0-1.473,0.659-1.473,1.473v3.05h-0.806v-7.439c0-0.813-0.66-1.473-1.474-1.473
	c-0.813,0-1.473,0.659-1.473,1.473v7.439h-0.807v-7.439c0-0.813-0.66-1.473-1.473-1.473c-0.813,0-1.473,0.659-1.473,1.473v7.439
	h-0.807V16.57c0-0.814-0.661-1.473-1.473-1.473c-0.813,0-1.473,0.659-1.473,1.473v13.772h-0.807v-1.168
	c0-0.814-0.66-1.473-1.473-1.473c-0.813,0-1.473,0.659-1.473,1.473v1.168h-0.808v-3.05c0-0.814-0.66-1.473-1.473-1.473
	c-0.814,0-1.473,0.659-1.473,1.473v3.05h-0.807V14.751c0-0.814-0.659-1.473-1.473-1.473s-1.473,0.659-1.473,1.473v15.591H26.14
	v-7.439c0-0.813-0.659-1.473-1.473-1.473s-1.473,0.659-1.473,1.473v7.439h-0.807v-7.439c0-0.813-0.659-1.473-1.473-1.473
	s-1.473,0.659-1.473,1.473v7.439h-0.808v-3.05c0-0.814-0.659-1.473-1.473-1.473c-0.813,0-1.473,0.659-1.473,1.473v3.05h-0.807
	v-7.439c0-0.813-0.659-1.473-1.473-1.473c-0.814,0-1.473,0.659-1.473,1.473v7.439H11.13v-20.19c0-0.814-0.659-1.473-1.473-1.473
	c-0.814,0-1.473,0.659-1.473,1.473v20.19H7.377v-7.439c0-0.813-0.659-1.473-1.473-1.473s-1.473,0.659-1.473,1.473v7.439H3.625v-3.05
	c0-0.814-0.659-1.473-1.473-1.473c-0.814,0-1.473,0.659-1.473,1.473v3.05v2.947v3.049c0,0.813,0.659,1.473,1.473,1.473
	c0.813,0,1.473-0.659,1.473-1.473v-3.049h0.807v7.438c0,0.813,0.659,1.473,1.473,1.473s1.473-0.659,1.473-1.473v-7.438h0.808v20.189
	c0,0.813,0.658,1.473,1.473,1.473c0.813,0,1.473-0.659,1.473-1.473V33.289h0.807v7.438c0,0.813,0.659,1.473,1.473,1.473
	c0.814,0,1.473-0.659,1.473-1.473v-7.438h0.807v3.049c0,0.813,0.659,1.473,1.473,1.473c0.814,0,1.473-0.659,1.473-1.473v-3.049
	h0.808v7.438c0,0.813,0.659,1.473,1.473,1.473s1.473-0.659,1.473-1.473v-7.438h0.807v7.438c0,0.813,0.659,1.473,1.473,1.473
	s1.473-0.659,1.473-1.473v-7.438h0.807v15.592c0,0.813,0.659,1.474,1.473,1.474s1.473-0.66,1.473-1.474V33.289h0.807v3.049
	c0,0.813,0.659,1.473,1.473,1.473c0.813,0,1.473-0.659,1.473-1.473v-3.049h0.808v1.168c0,0.813,0.659,1.473,1.473,1.473
	c0.813,0,1.473-0.66,1.473-1.473v-1.168h0.807v13.771c0,0.813,0.659,1.473,1.473,1.473c0.812,0,1.473-0.659,1.473-1.473V33.289
	h0.807v7.438c0,0.813,0.659,1.473,1.473,1.473c0.813,0,1.473-0.659,1.473-1.473v-7.438h0.807v7.438c0,0.813,0.66,1.473,1.473,1.473
	c0.813,0,1.474-0.659,1.474-1.473v-7.438h0.806v3.049c0,0.813,0.66,1.473,1.473,1.473c0.813,0,1.473-0.659,1.473-1.473v-3.049h0.809
	v0.543c0,0.813,0.66,1.473,1.473,1.473s1.473-0.66,1.473-1.473v-0.543h0.806v7.438c0,0.813,0.66,1.473,1.473,1.473
	c0.813,0,1.473-0.659,1.473-1.473v-7.438h0.808v4.274c0,0.813,0.659,1.473,1.473,1.473s1.473-0.659,1.473-1.473v-4.274v-2.947
	v-4.274C63.663,25.255,63.004,24.597,62.19,24.597z"/>
</svg>
