<?xml version="1.0" encoding="iso-8859-1"?>
<!-- Generator: Adobe Illustrator 17.0.0, SVG Export Plug-In . SVG Version: 6.00 Build 0)  -->
<!DOCTYPE svg PUBLIC "-//W3C//DTD SVG 1.1//EN" "http://www.w3.org/Graphics/SVG/1.1/DTD/svg11.dtd">
<svg version="1.1" id="Capa_1" xmlns="http://www.w3.org/2000/svg" xmlns:xlink="http://www.w3.org/1999/xlink" x="0px" y="0px"
	 width="64px" height="64px" viewBox="0 0 64 64" style="enable-background:new 0 0 64 64;" xml:space="preserve">
<g>
	<path d="M59.223,54.417L58.831,53.5l-0.391,1l-0.626-1.833L57.031,54.5V43.333l-1.33,5.833l-0.861-10.25l-0.47,4.667l-0.548-7.917
		l-0.783,5.417v-6.667l-0.939,5.25L51.632,30l-0.313,7.583l-0.47-3.917l-0.626,1.667l-0.313-3.5L49.284,37.5l-0.861-7.583l-0.469,7
		l-0.783-9.667l-0.548,2.167l-0.391-2.333l-0.626,1.667l-0.861-7.833l-0.626,1.917L43.18,18.5l-0.391,7l-1.8-7l-0.313,11.333
		L40.05,18.167l-1.33,5.083v-5.5l-0.939,4.917l-0.47-2.417c0,0-1.096,12.833-1.174,13.167c-0.078,0.333-0.469-10.583-0.469-10.583
		l-1.722,10.833l-0.626-7.833l-0.47,3.333l-0.548-1.583l-0.548,3.25V29.25l-1.096,5.667L30.19,31.75l-0.783,4.833l-0.313-1.25
		l-1.096,3.917l-0.391-5.167L26.121,44.5l-0.626-2.917l-1.409,4l-1.878-2.333l-1.017,4.083l-0.626,4.417L19.547,44l-1.096,6.083
		l-1.017-5.75L16.652,52l-0.704-4.5l-1.409,5.667l-0.47-2.667L13.6,53.583l-0.548-2.417L12.27,53.5l-0.548-1.75l-0.939,1.667
		c0,0-0.861-7-0.939-7.25c-0.078-0.25-1.252,7.5-1.252,7.5L8.122,50.25L6.948,53.5l-0.47-2.167l-0.704,2.708l-0.313-1.625
		L4.601,54.5l-0.47-2.083l-0.548,3.25h56.5L59.223,54.417z"/>
	<polygon points="61.583,13.557 58.167,13.557 58.167,15.557 61.583,15.557 61.583,20.557 58.167,20.557 58.167,22.557 
		61.583,22.557 61.583,27.557 58.167,27.557 58.167,29.557 61.583,29.557 61.583,34.557 58.167,34.557 58.167,36.557 61.583,36.557 
		61.583,41.557 58.167,41.557 58.167,43.557 61.583,43.557 61.583,48.557 58.167,48.557 58.167,50.557 61.583,50.557 61.583,57.167 
		1,57.167 1,59.167 4.5,59.167 4.5,61.167 6.5,61.167 6.5,59.167 11.5,59.167 11.5,61.167 13.5,61.167 13.5,59.167 18.5,59.167 
		18.5,61.167 20.5,61.167 20.5,59.167 25.5,59.167 25.5,61.167 27.5,61.167 27.5,59.167 32.5,59.167 32.5,61.167 34.5,61.167 
		34.5,59.167 39.5,59.167 39.5,61.167 41.5,61.167 41.5,59.167 46.5,59.167 46.5,61.167 48.5,61.167 48.5,59.167 53.5,59.167 
		53.5,61.167 55.5,61.167 55.5,59.167 63.583,59.167 63.583,10 61.583,10 	"/>
</g>
</svg>
